# xmcd
#
# Track frame offsets: 
#        150
#        18257
#        34015
#        47775
#        61940
#        75079
#        84519
#        99980
#        110689
#        122343
#
# Disc length: 1755 seconds
#
# Revision: 0
# Processed by: cddbd v1.5.1PL2 Copyright (c) Steve Scherf et al.
# Submitted via: ExactAudioCopy v0.95b3
#
DISCID=6806d90a
DTITLE=Talk To The Cat - Talk To The Cat Plays J.J. Cale
DYEAR=2004
DGENRE=Blues
TTITLE0=Sensitive Kind
TTITLE1=Runaround
TTITLE2=Right Down Here
TTITLE3=Passion
TTITLE4=Magnolia
TTITLE5=Mojo
TTITLE6=Don't Go To Strangers
TTITLE7=Hold On
TTITLE8=Downtown L.A.
TTITLE9=Out Of Style
EXTD=
EXTT0=
EXTT1=
EXTT2=
EXTT3=
EXTT4=
EXTT5=
EXTT6=
EXTT7=
EXTT8=
EXTT9=
PLAYORDER=
